<?xml version="1.0" standalone="no"?>
<!DOCTYPE svg PUBLIC "-//W3C//DTD SVG 20010904//EN"
 "http://www.w3.org/TR/2001/REC-SVG-20010904/DTD/svg10.dtd">
<svg version="1.0" xmlns="http://www.w3.org/2000/svg"
 width="128.000000pt" height="128.000000pt" viewBox="0 0 128.000000 128.000000"
 preserveAspectRatio="xMidYMid meet">
<metadata>
Created by potrace 1.10, written by Peter Selinger 2001-2011
</metadata>
<g transform="translate(0.000000,128.000000) scale(0.100000,-0.100000)"
fill="#000000" stroke="none">
<path d="M735 1248 c-31 -17 -94 -80 -117 -116 -11 -18 -51 -109 -88 -203 -91
-227 -116 -266 -217 -340 -44 -32 -99 -79 -121 -104 -37 -43 -79 -132 -67
-143 3 -3 41 0 85 7 l81 13 54 -58 c41 -44 58 -73 71 -116 29 -100 70 -120
153 -73 42 24 45 25 100 11 109 -27 126 -28 186 -5 42 16 68 19 100 14 37 -5
50 -2 84 20 50 31 97 94 112 149 18 66 -3 129 -87 270 -106 176 -115 207 -121
401 -6 183 -19 231 -75 265 -36 22 -101 26 -133 8z m104 -36 c35 -19 71 -72
71 -104 0 -16 -2 -16 -20 2 -22 22 -48 25 -98 11 -27 -8 -32 -7 -32 7 0 27
-30 64 -47 58 -28 -11 0 16 31 30 42 18 55 17 95 -4z m-109 -82 c0 -40 -9 -60
-28 -60 -8 0 -12 -3 -9 -7 4 -3 29 6 56 20 27 15 61 27 76 27 56 0 81 -34 53
-73 -11 -14 -18 -15 -49 -6 -28 9 -35 16 -32 30 6 23 -23 26 -50 5 -16 -12
-15 -14 12 -19 16 -3 35 -13 44 -21 8 -8 17 -13 20 -10 3 3 8 0 12 -6 7 -12
-52 -40 -86 -40 -18 0 -19 2 -9 15 19 22 -4 18 -25 -5 -9 -10 -42 -25 -72 -31
-41 -9 -50 -15 -36 -20 16 -6 192 34 244 55 13 6 17 -3 22 -46 22 -180 0 -276
-90 -390 -60 -75 -73 -99 -73 -131 0 -25 29 -117 37 -117 2 0 30 20 61 44 59
46 134 85 164 86 39 0 37 -136 -3 -194 -49 -72 -133 -96 -248 -72 -72 15 -73
15 -121 -10 -80 -42 -101 -44 -126 -15 -11 14 -27 43 -33 64 -7 20 -16 35 -21
32 -9 -5 -24 71 -19 90 2 6 -7 30 -20 54 -31 59 -25 112 21 188 20 32 51 84
71 117 51 83 96 197 102 256 3 29 11 64 19 78 8 15 20 42 26 60 15 40 74 94
95 86 8 -4 15 -18 15 -34z m212 -422 c14 -31 44 -83 66 -115 49 -72 87 -148
97 -190 15 -74 -38 -174 -120 -225 -46 -28 -50 -22 -15 19 18 20 39 51 46 69
19 45 18 118 -2 156 -15 29 -18 30 -66 25 -27 -4 -63 -13 -80 -22 -17 -8 -33
-13 -35 -11 -2 2 9 28 25 57 30 55 57 127 31 84 -7 -11 -29 -40 -49 -65 -42
-51 -70 -101 -70 -125 0 -9 -4 -13 -10 -10 -5 3 -10 28 -10 54 0 50 -2 46 98
174 41 52 43 59 49 138 6 89 -10 253 -26 273 -7 8 -4 16 10 24 10 7 20 20 21
30 1 9 4 -50 7 -133 6 -134 9 -156 33 -207z m-577 -164 c-14 -26 -25 -64 -25
-84 l0 -37 -67 -17 c-38 -9 -71 -16 -75 -16 -31 0 50 101 124 156 33 24 62 44
64 44 2 0 -8 -21 -21 -46z"/>
<path d="M640 1081 c-11 -22 0 -34 24 -25 20 8 21 44 1 44 -8 0 -19 -9 -25
-19z"/>
<path d="M765 929 c-76 -42 -70 -53 10 -15 45 21 90 57 69 55 -5 0 -40 -18
-79 -40z"/>
<path d="M545 355 c-21 -25 -41 -42 -46 -39 -5 3 -16 21 -24 40 -10 25 -20 35
-32 32 -22 -4 -30 -38 -9 -38 8 0 24 -13 36 -30 12 -16 25 -30 30 -30 5 0 24
16 43 35 49 50 60 46 52 -16 l-7 -52 51 7 c28 4 51 3 51 -1 0 -3 -10 -17 -22
-30 -23 -25 -17 -44 9 -27 10 6 26 23 37 37 19 25 19 28 3 44 -14 15 -21 15
-57 3 -22 -7 -43 -10 -47 -7 -3 4 0 25 7 47 10 32 11 42 0 55 -20 24 -36 18
-75 -30z"/>
<path d="M943 382 c-10 -10 -33 -37 -52 -60 -18 -23 -38 -39 -44 -35 -6 4 -7
1 -2 -6 8 -14 68 38 107 92 22 31 17 36 -9 9z"/>
<path d="M1005 94 c11 -8 29 -22 40 -30 19 -14 17 -15 -25 -10 l-45 5 35 -13
35 -13 -55 1 c-39 1 -62 -4 -80 -17 l-25 -19 25 9 c14 4 67 7 118 7 50 -1 92
0 92 3 0 19 -28 47 -70 68 -55 28 -75 32 -45 9z"/>
<path d="M704 61 c-18 -11 -35 -25 -39 -31 -9 -15 14 -31 35 -25 8 3 53 7 100
10 82 6 122 15 66 15 -23 0 -26 3 -21 20 6 18 3 20 -17 15 -127 -29 -153 -29
-101 -1 15 8 24 15 18 16 -5 0 -24 -9 -41 -19z"/>
</g>
</svg>
